<?xml version="1.0" standalone="no"?>
<!DOCTYPE svg PUBLIC "-//W3C//DTD SVG 20010904//EN"
 "http://www.w3.org/TR/2001/REC-SVG-20010904/DTD/svg10.dtd">
<svg version="1.0" xmlns="http://www.w3.org/2000/svg"
 width="236.000000pt" height="99.000000pt" viewBox="0 0 236.000000 99.000000"
 preserveAspectRatio="xMidYMid meet">
<metadata>
Created by potrace 1.15, written by Peter Selinger 2001-2017
</metadata>
<g transform="translate(0.000000,99.000000) scale(0.100000,-0.100000)"
fill="#000000" stroke="none">
<path d="M1333 841 c-141 -49 -262 -133 -340 -235 -67 -89 -87 -139 -87 -216
0 -76 20 -121 67 -151 64 -41 188 -6 279 78 54 51 128 139 128 153 0 5 -30
-10 -67 -32 -134 -81 -314 -151 -335 -130 -36 36 45 175 182 313 89 90 118
113 190 148 85 42 177 62 216 47 15 -6 15 -8 -2 -28 -27 -30 -173 -138 -187
-138 -7 0 2 12 18 26 36 30 30 29 -57 -16 -47 -23 -68 -40 -68 -53 0 -25 61
-50 106 -41 24 4 34 3 34 -7 0 -8 11 -3 28 12 15 14 53 42 85 64 32 21 70 54
84 72 26 34 87 75 131 88 36 11 28 -25 -35 -148 -70 -137 -152 -261 -228 -345
-59 -65 -62 -82 -15 -97 32 -10 72 19 226 166 271 260 425 370 538 385 35 5
46 11 46 25 0 27 -39 49 -89 49 -87 0 -207 -86 -426 -305 -82 -82 -126 -123
-99 -90 106 126 169 239 180 318 6 40 3 49 -19 71 -33 33 -88 43 -146 25 -42
-13 -49 -13 -81 3 -55 28 -158 24 -257 -11z"/>
<path d="M465 816 c-161 -44 -278 -116 -315 -190 -25 -52 -20 -87 17 -116 50
-39 123 -17 205 63 43 42 76 87 63 87 -4 0 -21 -11 -38 -24 -38 -28 -130 -75
-169 -87 -84 -24 14 69 137 131 139 70 320 99 428 69 46 -12 107 -64 107 -90
0 -80 -150 -233 -320 -327 -61 -33 -120 -50 -120 -33 0 6 14 26 30 44 33 38
36 49 17 66 -10 8 -34 -1 -98 -38 -46 -27 -86 -47 -88 -45 -9 8 243 286 322
355 41 36 43 59 7 59 -24 0 -174 -125 -260 -216 -73 -78 -184 -223 -208 -271
-12 -26 -13 -35 -2 -48 7 -8 16 -15 19 -15 4 0 50 32 101 70 51 39 95 70 97
70 2 0 -1 -9 -7 -20 -19 -35 -8 -83 22 -99 22 -13 36 -14 85 -3 137 28 289
138 379 273 60 91 80 155 64 205 -19 56 -74 110 -136 134 -77 28 -229 27 -339
-4z"/>
</g>
</svg>
